<svg xmlns="http://www.w3.org/2000/svg" height="800" width="1200" viewBox="-125.988 -169.58175 1091.896 1017.4905"><defs><linearGradient x1="0" y1="0" x2="1" y2="0" gradientUnits="userSpaceOnUse" gradientTransform="matrix(0 293.21115 293.21115 0 642.89 484.382)" spreadMethod="pad" id="a"><stop offset="0" stop-color="#20b038"/><stop offset="1" stop-color="#60d66a"/></linearGradient><linearGradient x1="0" y1="0" x2="1" y2="0" gradientUnits="userSpaceOnUse" gradientTransform="rotate(90 82.006 560.982) scale(303.7258)" spreadMethod="pad" id="b"><stop offset="0" stop-color="#f9f9f9"/><stop offset="1" stop-color="#fff"/></linearGradient></defs><path d="M813.343 610.613c-.714 3.598-1.942 6.734-3.675 9.426-1.741 2.696-4.017 4.89-6.83 6.559-2.807 1.679-6.311 2.519-10.5 2.519-4.071 0-7.543-.84-10.414-2.52-2.877-1.668-5.176-3.862-6.919-6.558-1.726-2.692-2.989-5.828-3.77-9.426a51.613 51.613 0 01-1.163-10.946c0-3.844.365-7.554 1.08-11.138.716-3.595 1.947-6.764 3.68-9.528 1.732-2.747 4.012-4.995 6.825-6.727 2.803-1.737 6.307-2.612 10.502-2.612 4.069 0 7.506.875 10.316 2.612 2.821 1.732 5.118 4 6.918 6.819 1.802 2.816 3.088 6.02 3.863 9.609a51.146 51.146 0 011.167 10.965c0 3.699-.363 7.358-1.08 10.946m24.061-29.184c-1.677-6.043-4.25-11.342-7.724-15.898-3.472-4.545-7.832-8.198-13.1-10.952-5.272-2.76-11.563-4.13-18.863-4.13-5.738 0-11.009 1.133-15.793 3.413-4.79 2.273-8.74 5.927-11.852 10.955h-.352v-11.858h-24.244v125.368h25.492v-44.001h.36c3.112 4.553 7.101 7.992 11.943 10.32 4.844 2.333 10.148 3.507 15.894 3.507 6.816 0 12.771-1.323 17.864-3.954 5.082-2.632 9.339-6.17 12.744-10.6 3.419-4.432 5.954-9.51 7.631-15.261 1.684-5.748 2.516-11.737 2.516-17.961 0-6.586-.832-12.9-2.516-18.948m-125.676 29.184c-.725 3.598-1.956 6.734-3.685 9.426-1.736 2.696-4.012 4.89-6.834 6.559-2.804 1.679-6.31 2.519-10.497 2.519-4.075 0-7.532-.84-10.407-2.52-2.876-1.668-5.177-3.862-6.916-6.558-1.736-2.692-2.99-5.828-3.772-9.426a51.438 51.438 0 01-1.16-10.946c0-3.844.348-7.554 1.066-11.138.728-3.595 1.948-6.764 3.689-9.528 1.724-2.747 4.005-4.995 6.827-6.727 2.808-1.737 6.298-2.612 10.496-2.612 4.064 0 7.518.875 10.324 2.612a21.36 21.36 0 016.913 6.819c1.79 2.816 3.077 6.02 3.857 9.609a51.312 51.312 0 011.162 10.965c0 3.699-.348 7.358-1.063 10.946m16.332-45.082c-3.467-4.545-7.841-8.198-13.11-10.952-5.269-2.76-11.547-4.13-18.845-4.13-5.753 0-11.014 1.133-15.8 3.413-4.8 2.273-8.74 5.927-11.848 10.955h-.366v-11.858h-24.247v125.368h25.512v-44.001h.347c3.108 4.553 7.1 7.992 11.95 10.32 4.836 2.333 10.136 3.507 15.884 3.507 6.827 0 12.778-1.323 17.863-3.954 5.09-2.632 9.339-6.17 12.75-10.6 3.415-4.432 5.947-9.51 7.637-15.261 1.664-5.748 2.51-11.737 2.51-17.961 0-6.586-.846-12.9-2.51-18.948-1.69-6.043-4.256-11.342-7.727-15.898m-167.695 30.715l16.698-47.055h.357l16.163 47.055zm2.69-78.667L514.58 645.813h28.368L553 617.258h47.945l9.687 28.555h29.274L591.97 517.579zm-50.634 87.558a23.116 23.116 0 00-6.642-7.368c-2.751-1.97-5.902-3.56-9.424-4.762-3.536-1.19-7.156-2.2-10.868-3.044a413.577 413.577 0 00-10.587-2.34c-3.472-.718-6.56-1.526-9.255-2.421-2.69-.903-4.868-2.061-6.545-3.51-1.681-1.433-2.51-3.285-2.51-5.56 0-1.92.466-3.445 1.43-4.585a9.606 9.606 0 013.504-2.608c1.379-.59 2.895-.98 4.575-1.165a45.66 45.66 0 014.668-.263c4.552 0 8.501.866 11.86 2.603 3.341 1.735 5.202 5.059 5.556 9.964h24.238c-.478-5.743-1.942-10.497-4.398-14.279-2.45-3.77-5.538-6.794-9.244-9.068-3.704-2.273-7.928-3.886-12.663-4.846-4.728-.958-9.603-1.436-14.621-1.436-5.038 0-9.948.454-14.723 1.342-4.799.9-9.107 2.463-12.932 4.674-3.835 2.214-6.912 5.236-9.25 9.066-2.338 3.832-3.505 8.746-3.505 14.728 0 4.072.844 7.519 2.523 10.33 1.66 2.82 3.887 5.148 6.63 7.006 2.76 1.852 5.905 3.358 9.434 4.484 3.53 1.15 7.152 2.128 10.856 2.972 9.107 1.916 16.201 3.826 21.284 5.748 5.088 1.914 7.63 4.788 7.63 8.619 0 2.276-.534 4.152-1.613 5.65a12.248 12.248 0 01-4.037 3.598c-1.627.897-3.424 1.559-5.388 1.973-1.977.423-3.868.635-5.661.635-2.514 0-4.938-.305-7.266-.903-2.338-.596-4.402-1.53-6.197-2.788-1.793-1.254-3.27-2.868-4.404-4.848-1.128-1.973-1.71-4.334-1.71-7.09h-24.235c.245 6.225 1.646 11.402 4.228 15.533 2.562 4.13 5.852 7.453 9.868 9.973 4.009 2.51 8.593 4.308 13.745 5.388a76.943 76.943 0 0015.785 1.614 79.72 79.72 0 0015.539-1.52c5.085-1.024 9.605-2.79 13.556-5.31 3.959-2.51 7.147-5.828 9.608-9.965 2.447-4.135 3.672-9.25 3.672-15.36 0-4.313-.836-7.928-2.51-10.861m-105.389-80.012h-25.501v27.834h-15.435v17.063h15.435v54.781c0 4.674.787 8.443 2.337 11.312 1.559 2.87 3.68 5.099 6.371 6.648 2.695 1.559 5.81 2.603 9.341 3.142 3.522.536 7.278.808 11.219.808 2.524 0 5.09-.063 7.728-.174 2.627-.122 5.019-.353 7.179-.726v-19.76a32.661 32.661 0 01-3.778.545 44.87 44.87 0 01-4.126.185c-4.306 0-7.182-.73-8.622-2.162-1.429-1.434-2.148-4.307-2.148-8.623v-45.976h18.674v-17.063h-18.674zm-73.077 84.762c0 1.448-.145 3.364-.45 5.758-.297 2.397-1.106 4.754-2.42 7.09-1.32 2.334-3.36 4.35-6.106 6.015-2.752 1.687-6.641 2.524-11.675 2.524a31.73 31.73 0 01-5.921-.547c-1.919-.356-3.592-.99-5.028-1.885-1.435-.899-2.575-2.123-3.413-3.68-.834-1.556-1.258-3.468-1.258-5.744 0-2.393.424-4.377 1.258-5.93a11.668 11.668 0 013.326-3.862c1.37-1.015 2.99-1.82 4.844-2.428a46.856 46.856 0 015.658-1.435c2.029-.352 4.07-.661 6.1-.898a75.301 75.301 0 005.836-.895 41.23 41.23 0 005.212-1.352c1.616-.539 2.956-1.28 4.037-2.241zm25.495 15.275v-48.31c0-5.634-1.251-10.154-3.774-13.562-2.508-3.413-5.741-6.076-9.686-7.992-3.956-1.915-8.328-3.204-13.116-3.861a104.324 104.324 0 00-14.179-.988c-5.144 0-10.268.505-15.348 1.53-5.1 1.014-9.668 2.723-13.741 5.114a30.429 30.429 0 00-10.05 9.52c-2.641 3.948-4.136 8.92-4.493 14.906h25.492c.479-5.03 2.163-8.622 5.036-10.78 2.872-2.152 6.816-3.228 11.85-3.228 2.27 0 4.391.154 6.371.448 1.971.303 3.71.896 5.208 1.794 1.498.902 2.694 2.153 3.587 3.774.897 1.618 1.348 3.804 1.348 6.55.119 2.645-.663 4.637-2.33 6.02-1.682 1.38-3.953 2.432-6.826 3.14-2.873.726-6.165 1.268-9.879 1.614-3.712.366-7.48.855-11.305 1.448a105.987 105.987 0 00-11.399 2.42c-3.772 1.018-7.132 2.55-10.061 4.575-2.935 2.044-5.327 4.764-7.188 8.18-1.852 3.413-2.777 7.757-2.777 13.02 0 4.79.806 8.917 2.422 12.387 1.615 3.482 3.859 6.346 6.736 8.622 2.874 2.278 6.223 3.956 10.052 5.036 3.826 1.075 7.959 1.614 12.391 1.614a57.88 57.88 0 0016.872-2.508c5.51-1.691 10.301-4.61 14.37-8.811.12 1.556.33 3.09.626 4.58.299 1.496.69 2.972 1.17 4.399h25.858c-1.197-1.906-2.041-4.778-2.515-8.62-.484-3.824-.722-7.832-.722-12.031M254.413 560.95c-2.51-3.292-5.953-5.865-10.316-7.723-4.374-1.848-9.97-2.778-16.789-2.778-4.79 0-9.696 1.229-14.73 3.682-5.023 2.454-9.155 6.376-12.385 11.767h-.54v-48.319h-25.496v128.234h25.496V597.14c0-9.452 1.555-16.25 4.671-20.382 3.11-4.13 8.136-6.198 15.081-6.198 6.103 0 10.352 1.888 12.747 5.662 2.395 3.77 3.592 9.49 3.592 17.15v52.44h25.497v-57.111c0-5.741-.514-10.98-1.526-15.721-1.02-4.72-2.784-8.734-5.302-12.031m-134.658 44.997h-.355L97.496 517.58H71.1l-22.267 87.286h-.357l-20.29-87.286H0l33.933 128.234h28.552l21.362-87.287h.36l21.724 87.287h28.012l34.473-128.234h-27.65zm210.625-265.21l6.096 3.613c25.61 15.198 54.975 23.238 84.919 23.252h.065c91.957 0 166.803-74.826 166.841-166.792.014-44.569-17.321-86.476-48.822-118-31.503-31.525-73.39-48.896-117.956-48.914-92.031 0-166.874 74.816-166.91 166.778-.013 31.515 8.804 62.206 25.507 88.763l3.972 6.31-16.86 61.546zm-111.344 64.232l28.479-103.984c-17.566-30.432-26.807-64.956-26.794-100.323C220.765 90.017 310.811 0 421.46 0c53.696.024 104.093 20.923 141.996 58.85 37.896 37.931 58.759 88.35 58.74 141.973-.047 110.638-90.105 200.67-200.736 200.67-.008 0 .005 0 0 0h-.087c-33.593-.013-66.604-8.438-95.924-24.428z" fill="#fff"/><path d="M498.159 632.308c-.008-25.603 6.682-50.601 19.403-72.636l-20.62-75.29 77.047 20.203c21.228-11.569 45.127-17.675 69.451-17.683h.064c80.099 0 145.301 65.18 145.334 145.293.016 38.822-15.088 75.325-42.531 102.787-27.437 27.462-63.928 42.594-102.809 42.612-80.108 0-145.306-65.176-145.339-145.286m145.345-145.406c-.001 0-.004 0 0 0" fill="url(#a)" transform="matrix(1.33333 0 0 -1.33333 -436.572 1043.804)"/><path d="M492.97 632.357c-.009-26.526 6.921-52.418 20.095-75.243l-21.359-77.987 79.81 20.927c21.99-11.992 46.748-18.311 71.943-18.321h.065c82.973 0 150.516 67.524 150.552 150.503.014 40.217-15.633 78.031-44.056 106.479-28.426 28.446-66.224 44.12-106.496 44.137-82.987 0-150.521-67.512-150.554-150.495m47.528-71.313l-2.978 4.732c-12.528 19.918-19.142 42.936-19.132 66.571.028 68.973 56.159 125.085 125.183 125.085 33.425-.014 64.84-13.042 88.467-36.686 23.626-23.643 36.627-55.074 36.618-88.501-.03-68.974-56.164-125.093-125.132-125.093h-.049c-22.458.011-44.481 6.041-63.69 17.439l-4.571 2.71-47.361-12.417zm103.026-79.311c-.001 0-.004 0 0 0" fill="url(#b)" transform="matrix(1.33333 0 0 -1.33333 -436.572 1043.804)"/><path d="M371.29 116.773c-3.758-8.353-7.713-8.52-11.288-8.666-2.924-.126-6.27-.118-9.612-.118-3.344 0-8.778 1.258-13.374 6.276-4.598 5.02-17.556 17.152-17.556 41.828 0 24.68 17.974 48.526 20.48 51.875 2.508 3.344 34.698 55.603 85.68 75.708 42.37 16.707 50.99 13.384 60.188 12.548 9.196-.836 29.674-12.13 33.854-23.843 4.18-11.71 4.18-21.748 2.926-23.846-1.254-2.09-4.598-3.344-9.615-5.852-5.016-2.508-29.673-14.644-34.272-16.316-4.599-1.672-7.943-2.508-11.287 2.513-3.344 5.016-12.952 16.31-15.877 19.655-2.927 3.352-5.852 3.77-10.87 1.262-5.015-2.516-21.169-7.806-40.333-24.893-14.91-13.293-24.977-29.712-27.904-34.733-2.925-5.016-.313-7.734 2.203-10.234 2.252-2.246 5.016-5.854 7.524-8.784 2.504-2.929 3.34-5.018 5.012-8.362 1.672-3.35.836-6.279-.419-8.787-1.253-2.508-11-27.313-15.46-37.23" fill="#fff" fill-rule="evenodd"/></svg>